# xmcd
#
# Track frame offsets:
#	150
#	14469
#	36819
#	54087
#	74486
#	98471
#	126637
#	142826
#	159494
#	176821
#	208416
#	225393
#	249873
#	270768
#	285190
#	307208
#	326703
#
# Disc length: 4785 seconds
#
# Revision: 3
# Processed by: cddbd v1.5.2PL0 Copyright (c) Steve Scherf et al.
# Submitted via: EZCDAudioConverter 6.0.0.1
#
DISCID=e812af11
DTITLE=Various Artist - Akella Presents - Vol.73 - Electric Blues  Cd1
DYEAR=2016
DGENRE=Blues
TTITLE0=Ged Wilson - Spin The Coin
TTITLE1=Larry Garner - Another Bad Day
TTITLE2=John Verity - Nothings Changed
TTITLE3=Curtis Salgado - Walk A Mile In My Blues
TTITLE4=Ron Cartel - Last Two Dollars
TTITLE5=The Rides - I've Got To Use My Imagination
TTITLE6=Eelco Gelling Band - Got To The Moving
TTITLE7=Philipp Fankhauser - Sunday Morning
TTITLE8=Dion - Visionary Heart
TTITLE9=Blues Down Town - I Walked The Streets
TTITLE10=Slim Chance and The Gamblers - My Better Half
TTITLE11=Keith Stone - First Love
TTITLE12=Airborne Blues Virus - Family Man Blues
TTITLE13=The Homemade Jamz Blues Band - Jealous
TTITLE14=Tad Robinson - Get Back To Love
TTITLE15=Twelve Bar Blues Band - Turn The Lights Down Low
TTITLE16=Larry McCray - Born On The Bayou
EXTD=
EXTT0=
EXTT1=
EXTT2=
EXTT3=
EXTT4=
EXTT5=
EXTT6=
EXTT7=
EXTT8=
EXTT9=
EXTT10=
EXTT11=
EXTT12=
EXTT13=
EXTT14=
EXTT15=
EXTT16=
PLAYORDER=
